<?xml version="1.0" encoding="UTF-8" standalone="no"?>
<!-- Created with Inkscape (http://www.inkscape.org/) -->

<svg
   width="47.548447mm"
   height="13.917087mm"
   viewBox="0 0 47.548447 13.917087"
   version="1.1"
   id="svg3282"
   inkscape:version="1.1.1 (3bf5ae0d25, 2021-09-20)"
   sodipodi:docname="Damm logo.svg"
   xmlns:inkscape="http://www.inkscape.org/namespaces/inkscape"
   xmlns:sodipodi="http://sodipodi.sourceforge.net/DTD/sodipodi-0.dtd"
   xmlns="http://www.w3.org/2000/svg"
   xmlns:svg="http://www.w3.org/2000/svg"
   xmlns:rdf="http://www.w3.org/1999/02/22-rdf-syntax-ns#"
   xmlns:cc="http://creativecommons.org/ns#"
   xmlns:dc="http://purl.org/dc/elements/1.1/">
  <title
     id="title3496">Damm logo</title>
  <sodipodi:namedview
     id="namedview3284"
     pagecolor="#ffffff"
     bordercolor="#999999"
     borderopacity="1"
     inkscape:pageshadow="0"
     inkscape:pageopacity="0"
     inkscape:pagecheckerboard="0"
     inkscape:document-units="mm"
     showgrid="false"
     fit-margin-top="0"
     fit-margin-left="0"
     fit-margin-right="0"
     fit-margin-bottom="0"
     inkscape:zoom="1.3273709"
     inkscape:cx="66.673149"
     inkscape:cy="19.210907"
     inkscape:window-width="1920"
     inkscape:window-height="1001"
     inkscape:window-x="-9"
     inkscape:window-y="-9"
     inkscape:window-maximized="1"
     inkscape:current-layer="layer1" />
  <defs
     id="defs3279" />
  <g
     inkscape:label="Layer 1"
     inkscape:groupmode="layer"
     id="layer1"
     transform="translate(-87.451277,-166.0589)">
    <g
       id="g98"
       transform="matrix(0.35277777,0,0,-0.35277777,95.997671,177.33156)">
      <path
         d="m 0,0 v 0 21.724 c 0,1.926 -1.523,2.878 -3.008,2.878 h -7.671 V 6.387 c 0,-0.506 -0.162,-0.94 -0.396,-1.161 -0.882,-0.864 -3.015,-2.503 -3.015,-2.503 0,0 9.029,-3.576 11.304,-4.46 C -1.167,-2.346 0,-1.24 0,0 m 7.536,23.385 v 0 L 7.551,1.415 c 0,-1.331 -0.105,-1.996 -0.695,-2.608 -0.605,-0.628 -9.541,-5.68 -10.834,-6.024 -1.516,-0.411 -2.531,-0.357 -3.71,0.09 -1.442,0.523 -4.375,1.821 -7.463,3.124 -1.745,0.726 -2.834,0.737 -3.873,0.737 -2.759,0 -4.7,-1.567 -4.7,-1.567 0,0 1.348,2.471 4.819,4.513 0.612,0.354 0.793,0.798 0.793,1.971 v 18.272 c 0,0 4.359,3.523 4.947,4.064 0.489,0.45 0.218,0.651 -0.155,0.651 -1.193,0 -2.179,-0.01 -3.407,-0.01 -1.669,0 -3.133,1.082 -3.731,1.785 -2.04,2.378 -3.768,5.541 -3.768,5.541 0,0 2.991,-1.637 6.309,-1.637 h 17.679 c 4.552,0 7.774,-3.386 7.774,-6.932 m 9.006,-1.424 c 0,0 0.844,-1.057 2.814,-1.057 h 8.173 c 1.397,0 2.856,-0.57 2.856,-2.23 V 3.186 c 0,-2.095 1.887,-2.441 3.915,-2.024 -1.448,-2.26 -4.074,-5.402 -5.441,-5.402 -1.885,0 -5.383,2.86 -5.383,6.572 0,0 -6.496,-5.108 -8.384,-6.462 -0.474,-0.337 -0.834,-0.393 -1.198,0.036 -1.035,1.204 -4.242,4.799 -4.242,9.693 0,7.385 5.848,9.861 13.824,10.077 0,1.239 -0.307,2.157 -2.008,2.157 -2.899,0 -3.447,-0.244 -5.564,-0.244 -2.68,0 -4.834,2.288 -4.834,2.288 z m 6.934,-8.245 C 18.139,13.338 16.113,9.778 16.113,6.17 c 0,-3.048 1.918,-4.296 1.918,-4.296 1.448,1.04 4.807,3.334 5.179,3.573 0.367,0.218 0.259,0.817 0.259,1.419 z m 32.038,4.396 v 0 c -1.308,1.359 -3.401,2.817 -4.864,3.264 -0.672,0.208 -1.098,0.165 -1.993,-0.169 -2.029,-0.745 -5.554,-3.041 -5.554,-3.041 0,0 -1.202,2.251 -3.262,2.705 -0.793,0.198 -1.426,0.393 -2.024,-0.117 -0.618,-0.51 -4.639,-4.326 -4.639,-4.326 0,0 3.09,0.273 3.09,-3.013 V 2.35 c 0,-4.024 4.398,-6.746 5.136,-6.746 0.643,0 3.7,2.572 5.435,4.94 -1.84,-0.278 -3.635,-0.059 -3.635,1.918 l -0.017,12.307 c 0,1.287 1.778,2.376 2.698,2.376 1.302,0 3.182,-2.228 3.182,-3.865 0,0 0.014,-10.491 0.014,-10.93 0,-4.024 4.373,-6.746 5.105,-6.746 0.645,0 3.702,2.572 5.439,4.94 -1.841,-0.278 -3.628,-0.059 -3.628,1.918 l -0.01,12.259 c 0,1.45 1.946,2.367 2.698,2.367 1.295,0 3.17,-2.114 3.17,-3.808 0,0 -0.007,-10.491 -0.007,-10.93 0,-4.024 4.419,-6.746 5.141,-6.746 0.651,0 3.702,2.572 5.444,4.94 -1.842,-0.278 -3.637,-0.059 -3.637,1.918 l -0.012,12.607 c 0,1.814 -0.447,2.624 -1.117,3.298 -1.257,1.267 -2.922,2.534 -4.435,3.049 -0.638,0.229 -1.185,0.125 -2.08,-0.209 -2.043,-0.745 -5.638,-3.095 -5.638,-3.095 m 38.123,0 c 0,0 3.606,2.35 5.642,3.095 0.887,0.334 1.438,0.438 2.082,0.209 1.513,-0.515 3.174,-1.782 4.431,-3.049 0.665,-0.674 1.104,-1.484 1.104,-3.298 l 0.023,-12.607 c 0,-1.977 1.788,-2.196 3.638,-1.918 -1.739,-2.368 -4.79,-4.933 -5.448,-4.933 -0.729,0 -5.141,2.715 -5.141,6.739 0,0.442 0.017,10.93 0.017,10.93 0,1.694 -1.886,3.808 -3.182,3.808 -0.731,0 -2.697,-0.917 -2.697,-2.367 L 94.119,2.462 c 0,-1.977 1.798,-2.196 3.637,-1.918 -1.74,-2.368 -4.803,-4.94 -5.443,-4.94 -0.726,0 -5.106,2.722 -5.106,6.746 0,0.439 -0.019,10.93 -0.019,10.93 0,1.637 -1.872,3.865 -3.172,3.865 -0.915,0 -2.696,-1.089 -2.696,-2.376 L 81.325,2.462 c 0,-1.977 1.791,-2.196 3.648,-1.918 -1.734,-2.368 -4.804,-4.94 -5.446,-4.94 -0.731,0 -5.146,2.722 -5.146,6.746 l -0.01,11.065 c 0,3.286 -3.07,3.013 -3.07,3.013 0,0 4.032,3.816 4.63,4.326 0.619,0.51 1.232,0.315 2.046,0.117 2.056,-0.454 3.247,-2.705 3.247,-2.705 0,0 3.528,2.296 5.553,3.041 0.899,0.334 1.338,0.377 1.994,0.169 1.471,-0.447 3.569,-1.905 4.866,-3.264"
         style="fill:#de252a;fill-opacity:1;fill-rule:nonzero;stroke:none"
         id="path100" />
    </g>
  </g>
  <metadata
     id="metadata3494">
    <rdf:RDF>
      <cc:Work
         rdf:about="">
        <dc:title>Damm logo</dc:title>
      </cc:Work>
    </rdf:RDF>
  </metadata>
</svg>
