<svg xmlns="http://www.w3.org/2000/svg" viewBox="0 0 1390 341" fill="none">
  <path d="M107.159 0H0.459333V1.84592L44.1486 26.7995V306.341L0 332.217V334.063H119.575C171.083 334.063 200.513 325.747 225.351 306.802C260.303 282.777 286.519 235.643 286.519 168.642C286.519 63.7612 225.351 0 107.159 0ZM148.546 314.657C122.79 314.657 103.015 308.192 85.0819 296.635V34.1928C85.0819 21.2569 91.5174 16.171 105.321 16.171C185.341 16.171 244.207 89.6377 244.207 191.755C244.207 293.871 194.078 314.662 148.546 314.662V314.657Z" fill="white"/>
  <path d="M526.688 203.768C526.688 148.323 492.654 97.959 423.673 97.959C354.691 97.959 314.677 152.019 314.677 222.251C314.677 292.482 356.524 340.077 425.515 340.077C472.424 340.077 507.836 319.743 526.693 271.692L525.315 271.23C497.257 295.718 472.884 303.111 442.07 303.111C399.299 303.111 347.333 276.316 341.352 211.622H526.238C526.697 209.315 526.697 207.003 526.697 203.772L526.688 203.768ZM341.347 194.524C344.112 149.246 371.701 118.283 413.094 118.283C454.486 118.283 485.3 147.857 503.233 194.524H341.342H341.347Z" fill="white"/>
  <path d="M662.368 0H580.966V1.84592L618.679 25.415L551.994 276.311C548.774 288.324 546.473 298.486 546.473 308.192C546.473 328.526 559.808 340.534 585.109 340.534C603.966 340.534 624.66 331.756 643.057 312.35V244.887H641.22C620.98 303.572 604.884 324.363 592.927 324.363C585.569 324.363 582.353 320.209 582.353 311.427C582.353 304.495 585.114 291.093 591.09 268.456L662.368 0Z" fill="white"/>
  <path d="M800.943 97.959C722.756 97.959 663.89 172.81 663.89 250.896C663.89 298.03 690.564 340.077 755.871 340.077C800.484 340.077 839.575 317.897 863.948 272.615L862.111 272.153C833.599 295.256 804.163 306.346 773.809 306.346C723.22 306.346 694.708 277.239 694.708 225.486C694.708 220.866 695.167 216.247 695.627 211.622H880.968C884.183 203.306 886.025 190.832 886.025 182.049C886.025 138.617 866.714 97.959 800.943 97.959ZM698.842 194.067C711.258 151.096 747.134 118.288 789.905 118.288C832.675 118.288 856.135 146.934 861.652 194.067H698.842Z" fill="white"/>
  <path d="M967.48 324.363C960.581 324.363 956.901 320.21 956.901 311.889C956.901 301.726 961.499 287.401 967.94 268.457L1001.51 165.417C1006.11 152.476 1010.25 138.151 1010.25 128.455C1010.25 107.66 995.074 97.959 970.7 97.959C952.303 97.959 928.389 107.66 911.37 124.292V189.443H913.207C936.203 133.07 952.298 113.664 964.255 113.664C971.155 113.664 973.916 117.822 973.916 125.677C973.916 135.382 969.318 151.553 962.882 170.498L929.308 272.61C923.791 288.319 920.571 300.332 920.571 310.504C920.571 330.372 935.748 340.534 958.743 340.534C978.059 340.534 1000.6 332.218 1020.37 312.35V244.887H1018.53C997.375 303.106 980.361 324.363 967.485 324.363H967.48Z" fill="white"/>
  <path d="M1006.58 5.9895C998.835 20.2089 987.198 31.9045 973.04 39.6823C987.198 47.4602 998.835 59.151 1006.58 73.3752C1014.32 59.1558 1025.96 47.4602 1040.11 39.6823C1025.96 31.9045 1014.32 20.2089 1006.58 5.9895Z" fill="white"/>
  <path d="M1096.39 322.978C1086.73 322.978 1083.05 316.508 1083.05 307.269C1083.05 301.726 1084.89 289.247 1090.41 268.456L1129.5 120.6H1184.69V103.04H1134.1L1159.79 5.9895H1157.95C1132.19 51.7337 1094.09 100.732 1057.29 117.826V120.6H1092.71L1051.32 276.316C1049.02 286.478 1047.18 295.717 1047.18 304.961C1047.18 327.603 1061.44 340.077 1089.04 340.077C1107.43 340.077 1128.13 330.833 1145.6 312.354V247.204H1143.76C1123.99 301.265 1110.19 322.983 1096.4 322.983L1096.39 322.978Z" fill="white"/>
  <path d="M1304.45 97.959C1227.65 97.959 1173.38 175.579 1173.38 253.209C1173.38 303.572 1202.36 341 1258.92 341C1331.59 341 1390 267.995 1390 186.674C1390 136.305 1361.94 97.959 1304.45 97.959ZM1275.02 314.201C1234.09 314.201 1210.18 279.547 1210.18 227.794C1210.18 170.498 1238.23 118.288 1289.28 118.288C1330.67 118.288 1354.59 153.404 1354.59 205.157C1354.59 262.453 1326.08 314.206 1275.03 314.206L1275.02 314.201Z" fill="white"/>
</svg>
